<svg xmlns="http://www.w3.org/2000/svg" version="1.1" xmlns:xlink="http://www.w3.org/1999/xlink" xmlns:svgjs="http://svgjs.com/svgjs" width="1000" height="1000"><rect width="1000" height="1000" rx="200" ry="200" fill="#a4becc"></rect><g transform="matrix(5.833333333333333,0,0,5.833333333333333,162.9015629887581,150.0560016433398)"><svg xmlns="http://www.w3.org/2000/svg" version="1.1" xmlns:xlink="http://www.w3.org/1999/xlink" xmlns:svgjs="http://svgjs.com/svgjs" width="115" height="120"><svg width="115" zoomAndPan="magnify" viewBox="0 0 86.25 90" height="120" preserveAspectRatio="xMidYMid meet" version="1.0" id="svg22" sodipodi:docname="logo-a.svg" inkscape:version="1.1.2 (0a00cf5339, 2022-02-04)" xmlns:inkscape="http://www.inkscape.org/namespaces/inkscape" xmlns:sodipodi="http://sodipodi.sourceforge.net/DTD/sodipodi-0.dtd" xmlns="http://www.w3.org/2000/svg" xmlns:svg="http://www.w3.org/2000/svg">
  <sodipodi:namedview id="namedview24" pagecolor="#ffffff" bordercolor="#666666" borderopacity="1.0" inkscape:pageshadow="2" inkscape:pageopacity="0.0" inkscape:pagecheckerboard="0" showgrid="false" width="100px" inkscape:zoom="2.296" inkscape:cx="60.97561" inkscape:cy="103.223" inkscape:window-width="1366" inkscape:window-height="714" inkscape:window-x="0" inkscape:window-y="26" inkscape:window-maximized="1" inkscape:current-layer="svg22"></sodipodi:namedview>
  <defs id="defs4">
    <g id="g2"></g>
  </defs>
  <g fill="#ffd700" fill-opacity="1" id="g12" transform="translate(-146.2596,-140.66602)">
    <g transform="translate(146.92691,229.87498)" id="g10">
      <g id="g8">
        <path d="M 33.328125,-85.734375 H 48.0625 L 80.65625,0 H 63.515625 l -7.96875,-21.375 H 25.59375 L 17.75,0 H 0.609375 Z M 52.53125,-33.078125 40.6875,-66.78125 28.375,-33.078125 Z m 0,0" id="path6"></path>
      </g>
    </g>
  </g>
  <g fill="#115173" fill-opacity="1" id="g20" transform="translate(-146.2596,-140.66602)">
    <g transform="translate(151.09859,227.17403)" id="g18">
      <g id="g16">
        <path d="M 33.328125,-85.734375 H 48.0625 L 80.65625,0 H 63.515625 l -7.96875,-21.375 H 25.59375 L 17.75,0 H 0.609375 Z M 52.53125,-33.078125 40.6875,-66.78125 28.375,-33.078125 Z m 0,0" id="path14"></path>
      </g>
    </g>
  </g>
</svg></svg></g></svg>